<svg xmlns="http://www.w3.org/2000/svg" width="60.448" height="60.448" viewBox="0 0 60.448 60.448">
  <g id="_002-friends" data-name="002-friends" transform="translate(0)">
    <path id="Trazado_9" data-name="Trazado 9" d="M41.842,331.334a8.709,8.709,0,1,0,8.709,8.709A8.719,8.719,0,0,0,41.842,331.334Zm0,15.647a6.938,6.938,0,1,1,6.938-6.938A6.946,6.946,0,0,1,41.842,346.981Z" transform="translate(-29.221 -292.216)" fill="#fff"/>
    <path id="Trazado_10" data-name="Trazado 10" d="M75.787,375.239a.885.885,0,0,0,1.252-1.252l-.978-.978a.885.885,0,0,0-1.252,1.252Z" transform="translate(-65.748 -328.742)" fill="#fff"/>
    <path id="Trazado_11" data-name="Trazado 11" d="M116.853,375.5a.882.882,0,0,0,.626-.259l.978-.978a.885.885,0,0,0-1.252-1.252l-.978.978a.885.885,0,0,0,.626,1.512Z" transform="translate(-102.276 -328.742)" fill="#fff"/>
    <path id="Trazado_12" data-name="Trazado 12" d="M81.8,406.983a5.754,5.754,0,0,0-6.868,0,.885.885,0,1,0,1,1.461,4.031,4.031,0,0,1,4.867,0,.885.885,0,0,0,1-1.461Z" transform="translate(-65.747 -357.93)" fill="#fff"/>
    <path id="Trazado_13" data-name="Trazado 13" d="M41.842,50.551a8.709,8.709,0,1,0-8.709-8.709A8.719,8.719,0,0,0,41.842,50.551Zm0-15.647A6.938,6.938,0,1,1,34.9,41.842,6.946,6.946,0,0,1,41.842,34.9Z" transform="translate(-29.221 -29.221)" fill="#fff"/>
    <path id="Trazado_14" data-name="Trazado 14" d="M75.435,77.3a.885.885,0,0,0,.885-.885v-.978a.885.885,0,0,0-1.771,0v.978A.885.885,0,0,0,75.435,77.3Z" transform="translate(-65.748 -65.748)" fill="#fff"/>
    <path id="Trazado_15" data-name="Trazado 15" d="M125.135,77.3a.885.885,0,0,0,.885-.885v-.978a.885.885,0,1,0-1.771,0v.978A.885.885,0,0,0,125.135,77.3Z" transform="translate(-109.581 -65.748)" fill="#fff"/>
    <path id="Trazado_16" data-name="Trazado 16" d="M75.934,110.244a4.031,4.031,0,0,1,4.867,0,.885.885,0,0,0,1-1.461,5.754,5.754,0,0,0-6.868,0,.886.886,0,1,0,1,1.461Z" transform="translate(-65.747 -94.937)" fill="#fff"/>
    <path id="Trazado_17" data-name="Trazado 17" d="M340.042,50.551a8.709,8.709,0,1,0-8.709-8.709A8.719,8.719,0,0,0,340.042,50.551Zm0-15.647a6.938,6.938,0,1,1-6.938,6.938A6.946,6.946,0,0,1,340.042,34.9Z" transform="translate(-292.215 -29.221)" fill="#fff"/>
    <path id="Trazado_18" data-name="Trazado 18" d="M373.635,77.3a.886.886,0,0,0,.885-.885v-.978a.885.885,0,1,0-1.771,0v.978A.886.886,0,0,0,373.635,77.3Z" transform="translate(-328.742 -65.748)" fill="#fff"/>
    <path id="Trazado_19" data-name="Trazado 19" d="M423.336,77.3a.885.885,0,0,0,.885-.885v-.978a.885.885,0,0,0-1.771,0v.978A.886.886,0,0,0,423.336,77.3Z" transform="translate(-372.574 -65.748)" fill="#fff"/>
    <path id="Trazado_20" data-name="Trazado 20" d="M373.134,109.3a5.754,5.754,0,0,0,6.868,0,.886.886,0,1,0-1-1.461,4.031,4.031,0,0,1-4.867,0,.885.885,0,1,0-1,1.461Z" transform="translate(-328.741 -94.97)" fill="#fff"/>
    <path id="Trazado_21" data-name="Trazado 21" d="M340.042,331.334a8.709,8.709,0,1,0,8.709,8.709A8.719,8.719,0,0,0,340.042,331.334Zm0,15.647a6.938,6.938,0,1,1,6.938-6.938A6.946,6.946,0,0,1,340.042,346.981Z" transform="translate(-292.215 -292.216)" fill="#fff"/>
    <path id="Trazado_22" data-name="Trazado 22" d="M379,406.038a4.031,4.031,0,0,1-4.867,0,.885.885,0,1,0-1,1.461,5.754,5.754,0,0,0,6.868,0,.885.885,0,0,0-1-1.461Z" transform="translate(-328.741 -357.963)" fill="#fff"/>
    <path id="Trazado_23" data-name="Trazado 23" d="M373.988,375.24a.885.885,0,0,0,1.252-1.252l-.978-.978a.885.885,0,0,0-1.252,1.252Z" transform="translate(-328.742 -328.742)" fill="#fff"/>
    <path id="Trazado_24" data-name="Trazado 24" d="M415.053,375.5a.882.882,0,0,0,.626-.259l.978-.978a.885.885,0,0,0-1.252-1.252l-.978.978a.885.885,0,0,0,.626,1.512Z" transform="translate(-365.269 -328.742)" fill="#fff"/>
    <path id="Trazado_25" data-name="Trazado 25" d="M47.827,35.206a12.552,12.552,0,0,0-7.348,2.366,12.594,12.594,0,0,0,0-14.7A12.619,12.619,0,1,0,47.827,0a12.545,12.545,0,0,0-7.215,2.264.885.885,0,0,0,1.013,1.452,10.847,10.847,0,1,1-2.706,2.708.885.885,0,0,0-1.453-1.013,12.61,12.61,0,0,0,.106,14.557,12.594,12.594,0,0,0-14.7,0,12.619,12.619,0,0,0-17.47-17.7A.885.885,0,0,0,6.419,3.717,10.848,10.848,0,1,1,3.713,6.425.885.885,0,0,0,2.26,5.412,12.618,12.618,0,0,0,19.969,22.876a12.594,12.594,0,0,0,0,14.7,12.634,12.634,0,1,0,2.907,2.907,12.594,12.594,0,0,0,14.7,0,12.617,12.617,0,1,0,10.255-5.273ZM12.621,58.677a10.85,10.85,0,1,1,10.85-10.85,10.862,10.862,0,0,1-10.85,10.85Zm6.753-28.453a10.85,10.85,0,1,1,10.85,10.85,10.862,10.862,0,0,1-10.85-10.85ZM47.827,58.677a10.85,10.85,0,1,1,10.85-10.85A10.862,10.862,0,0,1,47.827,58.677Z" transform="translate(0)" fill="#fff"/>
    <path id="Trazado_26" data-name="Trazado 26" d="M190.942,182.233a8.709,8.709,0,1,0,8.709,8.709A8.719,8.719,0,0,0,190.942,182.233Zm0,15.647a6.938,6.938,0,1,1,6.938-6.938A6.946,6.946,0,0,1,190.942,197.88Z" transform="translate(-160.718 -160.718)" fill="#fff"/>
    <path id="Trazado_27" data-name="Trazado 27" d="M224.535,223.65a.885.885,0,0,0-.885.885v.978a.885.885,0,0,0,1.771,0v-.978A.885.885,0,0,0,224.535,223.65Z" transform="translate(-197.245 -197.245)" fill="#fff"/>
    <path id="Trazado_28" data-name="Trazado 28" d="M274.235,223.65a.885.885,0,0,0-.885.885v.978a.885.885,0,0,0,1.771,0v-.978A.885.885,0,0,0,274.235,223.65Z" transform="translate(-241.078 -197.245)" fill="#fff"/>
    <path id="Trazado_29" data-name="Trazado 29" d="M243.058,256.783H241.1a.885.885,0,1,0,0,1.771h1.956a.885.885,0,1,0,0-1.771Z" transform="translate(-211.856 -226.466)" fill="#fff"/>
  </g>
</svg>
