<svg xmlns="http://www.w3.org/2000/svg" xmlns:xlink="http://www.w3.org/1999/xlink" width="222.508" height="50.947" viewBox="0 0 222.508 50.947">
  <defs>
    <clipPath id="clip-path">
      <rect id="Rect치ngulo_6" data-name="Rect치ngulo 6" width="100.653" height="50.947" fill="none"/>
    </clipPath>
  </defs>
  <g id="Grupo_13" data-name="Grupo 13" transform="translate(-166.347 -34.686)">
    <g id="Grupo_2" data-name="Grupo 2" transform="translate(166.347 34.686)">
      <g id="Grupo_1" data-name="Grupo 1" clip-path="url(#clip-path)">
        <path id="Trazado_1" data-name="Trazado 1" d="M34.009,1.378a18.081,18.081,0,0,1,12.87,5.331l11.2,11.2,3.773,3.773a16.333,16.333,0,1,1-23.1,23.1,6.715,6.715,0,0,0-9.5,0,16.333,16.333,0,1,1-23.1-23.1l3.773-3.773,11.2-11.2a18.081,18.081,0,0,1,12.87-5.331m0-1.378A19.518,19.518,0,0,0,20.164,5.735l-11.2,11.2L5.187,20.711a17.711,17.711,0,0,0,0,25.048h0a17.712,17.712,0,0,0,25.048,0,5.336,5.336,0,0,1,7.547,0,17.712,17.712,0,0,0,25.048,0h0a17.711,17.711,0,0,0,0-25.048l-3.773-3.773-11.2-11.2A19.518,19.518,0,0,0,34.009,0" transform="translate(0)" fill="#fff"/>
        <path id="Trazado_2" data-name="Trazado 2" d="M176.064,1.378a18.081,18.081,0,0,1,12.87,5.331l11.2,11.2,3.773,3.773a16.333,16.333,0,1,1-23.1,23.1,6.715,6.715,0,0,0-9.5,0,16.333,16.333,0,0,1-23.1-23.1l3.773-3.773,11.2-11.2a18.081,18.081,0,0,1,12.87-5.331m0-1.378a19.518,19.518,0,0,0-13.844,5.735l-11.2,11.2-3.773,3.773a17.711,17.711,0,0,0,0,25.048h0a17.712,17.712,0,0,0,25.048,0,5.336,5.336,0,0,1,7.547,0,17.712,17.712,0,0,0,25.048,0h0a17.711,17.711,0,0,0,0-25.048l-3.773-3.773-11.2-11.2A19.518,19.518,0,0,0,176.064,0" transform="translate(-109.419)" fill="#fff"/>
      </g>
    </g>
    <g id="Grupo_3" data-name="Grupo 3" transform="translate(293 48)">
      <path id="Trazado_3" data-name="Trazado 3" d="M12.194,6.547l3.014,8.9H9.215ZM8.8,0,0,24.319H6.2l1.455-4.3h9.077l1.455,4.3h6.27L15.658,0Z" fill="#fff"/>
      <rect id="Rect치ngulo_7" data-name="Rect치ngulo 7" width="5.924" height="19.33" transform="translate(27.125 4.988)" fill="#fff"/>
      <path id="Trazado_4" data-name="Trazado 4" d="M188.749,0l-6.755,16.836L175.169,0h-7V24.319h5.924V9.7l5.474,14.619h4.78l5.439-14.584V24.319h5.924V0Z" transform="translate(-130.827 0)" fill="#fff"/>
      <path id="Trazado_5" data-name="Trazado 5" d="M316.4,6.547l3.014,8.9H313.42ZM313,0l-8.8,24.319h6.2l1.455-4.3h9.076l1.455,4.3h6.27L319.864,0Z" transform="translate(-236.653)" fill="#fff"/>
    </g>
    <path id="Trazado_50" data-name="Trazado 50" d="M3.825,5.41a3.068,3.068,0,0,1,1.56.4,2.841,2.841,0,0,1,1.08,1.1,3.156,3.156,0,0,1,.39,1.568,3.2,3.2,0,0,1-.39,1.575,2.827,2.827,0,0,1-1.08,1.1,3.068,3.068,0,0,1-1.56.4,3.1,3.1,0,0,1-1.575-.4,2.827,2.827,0,0,1-1.08-1.1A3.2,3.2,0,0,1,.78,8.47,3.156,3.156,0,0,1,1.17,6.9a2.841,2.841,0,0,1,1.08-1.1A3.1,3.1,0,0,1,3.825,5.41Zm0,5.535a2.322,2.322,0,0,0,1.747-.69A2.46,2.46,0,0,0,6.24,8.47a2.46,2.46,0,0,0-.668-1.785,2.322,2.322,0,0,0-1.747-.69,2.291,2.291,0,0,0-1.748.69A2.492,2.492,0,0,0,1.425,8.47a2.492,2.492,0,0,0,.653,1.785A2.291,2.291,0,0,0,3.825,10.945ZM5.175,7.84a.977.977,0,0,1-.187.608A1.014,1.014,0,0,1,4.47,8.8l.84,1.245-.945.015-.72-1.2H3.39v1.2H2.61V6.835H4.05a1.194,1.194,0,0,1,.818.27A.928.928,0,0,1,5.175,7.84ZM3.39,8.215h.615a.43.43,0,0,0,.278-.09.308.308,0,0,0,.112-.255.287.287,0,0,0-.112-.247.456.456,0,0,0-.278-.082H3.39Z" transform="translate(382 42)" fill="#fff"/>
  </g>
</svg>
