<svg xmlns="http://www.w3.org/2000/svg" width="3684" height="1209.001" viewBox="0 0 3684 1209.001">
  <path id="Exclusión_1" data-name="Exclusión 1" d="M3684,1209H0V0H3684V1209ZM2084.655,598.8h75.412l12.09,35.7h52.1l-73.109-202.07h-57L2021.042,634.5h51.52l12.093-35.7Zm-135-85.483h0V634.5h49.224V432.431h-57.858l-56.13,139.894-56.7-139.894h-58.143V634.5h49.219V513.029L1864.74,634.5h39.72Zm-264.525-39.439V634.5h49.22V473.882ZM1523.357,598.8h75.416l12.09,35.7h52.1l-73.109-202.07h-57L1459.744,634.5h51.523l12.09-35.7ZM2147.4,560.812h-49.795l24.754-73.975Zm-561.294,0h-49.8l24.759-73.975Z" transform="translate(0 0)" fill="#020100"/>
</svg>
