<svg xmlns="http://www.w3.org/2000/svg" width="63.212" height="53.061" viewBox="0 0 63.212 53.061">
  <g id="_009-heart" data-name="009-heart" transform="translate(-6.783 -13.568)">
    <path id="Trazado_7" data-name="Trazado 7" d="M64.208,142.34a1.149,1.149,0,0,0,.176,1.615A55.3,55.3,0,0,0,77.9,151.817a8.877,8.877,0,0,0,6.835,0c9.772-4.046,17.267-9.868,22.277-17.306a33.025,33.025,0,0,0,5.855-15.563,20.056,20.056,0,0,0-2.036-10.561,16.531,16.531,0,0,0-10.666-8.257A18.651,18.651,0,0,0,86,101.868a23.573,23.573,0,0,0-4.684,3.327,23.577,23.577,0,0,0-4.684-3.327,18.652,18.652,0,0,0-14.163-1.739,16.53,16.53,0,0,0-10.666,8.257,20.056,20.056,0,0,0-2.036,10.561c.2,2.663,1.54,12.069,10.536,21.306a1.149,1.149,0,0,0,1.646-1.6,39.033,39.033,0,0,1-3.346-3.922h7.6v3.293a1.786,1.786,0,0,0,1.784,1.784H70.2a3.687,3.687,0,1,0,0-2.3H68.507v-3.293a1.786,1.786,0,0,0-1.784-1.784h-9.7a30.907,30.907,0,0,1-4.962-13.652c-.226-3.06-.1-13.287,11.036-16.438a16.127,16.127,0,0,1,3.112-.564v9.264a3.7,3.7,0,0,0-2.354,2.354H59.109a1.786,1.786,0,0,0-1.784,1.784v10.153a1.786,1.786,0,0,0,1.784,1.784h4.746a3.687,3.687,0,1,0,0-2.3H59.623v-9.124h4.232a3.686,3.686,0,0,0,7.006,0H91.775a3.686,3.686,0,0,0,7.006,0h4.231v9.124H98.781a3.687,3.687,0,1,0,0,2.3h4.746a1.786,1.786,0,0,0,1.784-1.784V115.178a1.786,1.786,0,0,0-1.784-1.784H98.781a3.7,3.7,0,0,0-2.354-2.354v-9.264a16.137,16.137,0,0,1,3.112.564c11.136,3.15,11.262,13.378,11.036,16.438a31.328,31.328,0,0,1-4.968,13.652H95.913a1.786,1.786,0,0,0-1.784,1.784v3.293H92.435a3.687,3.687,0,1,0,0,2.3h2.208a1.786,1.786,0,0,0,1.784-1.784v-3.293h7.6c-3.921,5.272-10.18,10.828-20.171,14.965a6.682,6.682,0,0,1-5.077,0,53,53,0,0,1-12.956-7.53A1.149,1.149,0,0,0,64.208,142.34Zm9.5-5.073a1.389,1.389,0,1,1-1.389,1.389A1.391,1.391,0,0,1,73.7,137.267Zm-6.346-12.691a1.389,1.389,0,1,1-1.389,1.389A1.391,1.391,0,0,1,67.358,124.576Zm27.92,2.778a1.389,1.389,0,1,1,1.389-1.389A1.391,1.391,0,0,1,95.278,127.355Zm-8.117-23.5a17.255,17.255,0,0,1,6.968-2.089v9.276a3.7,3.7,0,0,0-2.354,2.354H82.467v-6.118A21.082,21.082,0,0,1,87.162,103.855Zm-6.993,3.422v6.118H70.861a3.7,3.7,0,0,0-2.354-2.354v-9.276a17.256,17.256,0,0,1,6.968,2.089A21.088,21.088,0,0,1,80.169,107.276Zm-12.811,8.657a1.389,1.389,0,1,1,1.389-1.389A1.391,1.391,0,0,1,67.358,115.933Zm27.92,0a1.389,1.389,0,1,1,1.389-1.389A1.391,1.391,0,0,1,95.278,115.933Zm-6.345,24.113a1.389,1.389,0,1,1,1.389-1.389A1.391,1.391,0,0,1,88.933,140.046Z" transform="translate(-42.93 -85.873)" fill="#fff"/>
    <path id="Trazado_8" data-name="Trazado 8" d="M222.073,236.221v-8.358a2.4,2.4,0,0,0-.708-1.71l-1.795-1.795a2.4,2.4,0,0,0-1.71-.708H209.5a2.421,2.421,0,0,0-2.418,2.418v10.153a2.421,2.421,0,0,0,2.418,2.418h10.153A2.421,2.421,0,0,0,222.073,236.221Zm-12.691,0V226.068a.12.12,0,0,1,.12-.12h8.358a.119.119,0,0,1,.085.035l1.795,1.795a.119.119,0,0,1,.035.085v8.358a.12.12,0,0,1-.12.12H209.5A.12.12,0,0,1,209.382,236.221Z" transform="translate(-176.19 -191.052)" fill="#fff"/>
  </g>
</svg>
