<svg id="_007-emotions" data-name="007-emotions" xmlns="http://www.w3.org/2000/svg" width="63.724" height="63.724" viewBox="0 0 63.724 63.724">
  <path id="Trazado_30" data-name="Trazado 30" d="M58.808,0H4.916A4.922,4.922,0,0,0,0,4.916V8.549a.933.933,0,1,0,1.867,0V4.916A3.053,3.053,0,0,1,4.916,1.867H30.929V12.024a1.447,1.447,0,0,0,1.929,1.366,3.191,3.191,0,1,1,0,6.015,1.448,1.448,0,0,0-1.931,1.366V30.929h-9.6a5.057,5.057,0,1,0-9.861,0h-9.6V12.906a.933.933,0,1,0-1.867,0v45.9a4.922,4.922,0,0,0,4.916,4.916H36.973a.933.933,0,0,0,0-1.867H32.8V51.7a1.447,1.447,0,0,0-1.93-1.366,3.191,3.191,0,1,1,0-6.015A1.448,1.448,0,0,0,32.8,42.953V32.8h9.6a5.059,5.059,0,0,0,4.583,6.174q.177.012.353.012a5.007,5.007,0,0,0,3.448-1.363A5.062,5.062,0,0,0,52.256,32.8h9.6V58.808a3.053,3.053,0,0,1-3.049,3.049H41.329a.933.933,0,1,0,0,1.867H58.808a4.922,4.922,0,0,0,4.916-4.916V4.916A4.922,4.922,0,0,0,58.808,0ZM29.4,42.285a5.075,5.075,0,0,0-4.642,4.694,5.016,5.016,0,0,0,1.351,3.8,5.062,5.062,0,0,0,4.823,1.477v9.6H4.916a3.053,3.053,0,0,1-3.049-3.049V32.8H12.024a1.447,1.447,0,0,0,1.366-1.929,3.191,3.191,0,1,1,6.015,0A1.448,1.448,0,0,0,20.771,32.8H30.929v9.6A5.062,5.062,0,0,0,29.4,42.285ZM51.7,30.929a1.447,1.447,0,0,0-1.366,1.93,3.191,3.191,0,1,1-6.015,0,1.448,1.448,0,0,0-1.365-1.931H32.8v-9.6a5.057,5.057,0,1,0,0-9.861v-9.6H58.808a3.053,3.053,0,0,1,3.049,3.049V30.929Z" transform="translate(0)" fill="#fff"/>
</svg>
